<svg width="34" height="34" viewBox="0 0 34 34" fill="none" xmlns="http://www.w3.org/2000/svg">
<circle cx="17" cy="17" r="17" fill="url(#paint0_linear_4_70)"/>
<path d="M17.5 14.65C16.7441 14.65 16.0192 14.9503 15.4847 15.4847C14.9503 16.0192 14.65 16.7441 14.65 17.5C14.65 18.2559 14.9503 18.9808 15.4847 19.5153C16.0192 20.0497 16.7441 20.35 17.5 20.35C18.2559 20.35 18.9808 20.0497 19.5153 19.5153C20.0497 18.9808 20.35 18.2559 20.35 17.5C20.35 16.7441 20.0497 16.0192 19.5153 15.4847C18.9808 14.9503 18.2559 14.65 17.5 14.65ZM17.5 12.75C18.7598 12.75 19.968 13.2504 20.8588 14.1412C21.7496 15.032 22.25 16.2402 22.25 17.5C22.25 18.7598 21.7496 19.968 20.8588 20.8588C19.968 21.7496 18.7598 22.25 17.5 22.25C16.2402 22.25 15.032 21.7496 14.1412 20.8588C13.2504 19.968 12.75 18.7598 12.75 17.5C12.75 16.2402 13.2504 15.032 14.1412 14.1412C15.032 13.2504 16.2402 12.75 17.5 12.75ZM23.675 12.5125C23.675 12.8274 23.5499 13.1295 23.3272 13.3522C23.1045 13.5749 22.8024 13.7 22.4875 13.7C22.1726 13.7 21.8705 13.5749 21.6478 13.3522C21.4251 13.1295 21.3 12.8274 21.3 12.5125C21.3 12.1976 21.4251 11.8955 21.6478 11.6728C21.8705 11.4501 22.1726 11.325 22.4875 11.325C22.8024 11.325 23.1045 11.4501 23.3272 11.6728C23.5499 11.8955 23.675 12.1976 23.675 12.5125ZM17.5 9.9C15.1497 9.9 14.7659 9.90665 13.6725 9.9551C12.9276 9.99025 12.4279 10.09 11.9643 10.2705C11.552 10.4301 11.2547 10.621 10.9383 10.9383C10.641 11.2256 10.4124 11.5764 10.2695 11.9643C10.089 12.4298 9.9893 12.9286 9.9551 13.6725C9.9057 14.7213 9.9 15.0879 9.9 17.5C9.9 19.8503 9.90665 20.2341 9.9551 21.3275C9.99025 22.0714 10.09 22.5721 10.2695 23.0347C10.431 23.448 10.6211 23.7453 10.9365 24.0607C11.2566 24.3799 11.554 24.5708 11.9625 24.7285C12.4317 24.91 12.9315 25.0107 13.6725 25.0449C14.7213 25.0943 15.0879 25.1 17.5 25.1C19.8503 25.1 20.2341 25.0933 21.3275 25.0449C22.0704 25.0097 22.5711 24.91 23.0347 24.7304C23.446 24.5699 23.7453 24.379 24.0607 24.0636C24.3808 23.7434 24.5718 23.4461 24.7295 23.0375C24.91 22.5692 25.0107 22.0685 25.0449 21.3275C25.0943 20.2787 25.1 19.9121 25.1 17.5C25.1 15.1497 25.0933 14.7659 25.0449 13.6725C25.0097 12.9296 24.91 12.4279 24.7295 11.9643C24.5863 11.5768 24.3581 11.2262 24.0616 10.9383C23.7745 10.6409 23.4237 10.4122 23.0356 10.2695C22.5701 10.089 22.0704 9.9893 21.3275 9.9551C20.2787 9.9057 19.9121 9.9 17.5 9.9ZM17.5 8C20.0812 8 20.4032 8.0095 21.4159 8.057C22.4276 8.1045 23.1164 8.26315 23.7225 8.49875C24.3495 8.74005 24.8777 9.06685 25.4059 9.5941C25.889 10.069 26.2628 10.6435 26.5012 11.2775C26.7359 11.8826 26.8955 12.5723 26.943 13.5841C26.9876 14.5968 27 14.9188 27 17.5C27 20.0812 26.9905 20.4032 26.943 21.4159C26.8955 22.4276 26.7359 23.1164 26.5012 23.7225C26.2634 24.3569 25.8896 24.9315 25.4059 25.4059C24.9309 25.8888 24.3564 26.2626 23.7225 26.5012C23.1173 26.7359 22.4276 26.8955 21.4159 26.943C20.4032 26.9876 20.0812 27 17.5 27C14.9188 27 14.5968 26.9905 13.5841 26.943C12.5723 26.8955 11.8836 26.7359 11.2775 26.5012C10.6432 26.2633 10.0687 25.8894 9.5941 25.4059C9.11094 24.9311 8.73713 24.3566 8.49875 23.7225C8.26315 23.1173 8.1045 22.4276 8.057 21.4159C8.01235 20.4032 8 20.0812 8 17.5C8 14.9188 8.0095 14.5968 8.057 13.5841C8.1045 12.5714 8.26315 11.8836 8.49875 11.2775C8.73647 10.6431 9.11036 10.0685 9.5941 9.5941C10.0688 9.11077 10.6433 8.73694 11.2775 8.49875C11.8836 8.26315 12.5714 8.1045 13.5841 8.057C14.5968 8.01235 14.9188 8 17.5 8Z" fill="white"/>
<defs>
<linearGradient id="paint0_linear_4_70" x1="4.5" y1="3" x2="30" y2="32.5" gradientUnits="userSpaceOnUse">
<stop stop-color="#833AB4"/>
<stop offset="0.211585" stop-color="#405DE6"/>
<stop offset="0.49045" stop-color="#C13584"/>
<stop offset="0.711619" stop-color="#FD1D1D"/>
<stop offset="0.990484" stop-color="#F77737"/>
</linearGradient>
</defs>
</svg>
