<svg width="34" height="34" viewBox="0 0 34 34" fill="none" xmlns="http://www.w3.org/2000/svg">
<circle cx="17" cy="17" r="17" fill="#0077B5"/>
<path d="M11.7775 9.88973C11.7773 10.3907 11.5781 10.871 11.2237 11.225C10.8693 11.5791 10.3888 11.7778 9.88783 11.7776C9.38689 11.7773 8.90658 11.5781 8.55254 11.2237C8.1985 10.8693 7.99975 10.3888 8 9.88784C8.00025 9.3869 8.19949 8.90658 8.55388 8.55254C8.90827 8.19851 9.38878 7.99975 9.88972 8C10.3907 8.00025 10.871 8.19949 11.225 8.55388C11.579 8.90827 11.7778 9.38879 11.7775 9.88973ZM11.8342 13.1762H8.05666V25H11.8342V13.1762ZM17.8027 13.1762H14.0441V25H17.765V18.7953C17.765 15.3389 22.2697 15.0178 22.2697 18.7953V25H26V17.511C26 11.6841 19.3326 11.9013 17.765 14.7628L17.8027 13.1762Z" fill="white"/>
</svg>
